<svg xmlns="http://www.w3.org/2000/svg" width="40" height="40" viewBox="0 0 40 40">
  <g fill="none">
    <circle cx="20" cy="20" r="20" fill="#1E9C65"/>
    <path fill="#231F20" d="M29.303125,10.959375 C29.195,10.75375 28.981875,10.625 28.75,10.625 L18.125,10.625 C17.888125,10.625 17.671875,10.75875 17.565625,10.970625 L12.565625,20.970625 C12.46875,21.164375 12.47875,21.394375 12.593125,21.57875 C12.7075,21.7625 12.908125,21.875 13.125,21.875 L16.533125,21.875 L11.305,33.49375 C11.185625,33.75875 11.265625,34.071875 11.4975,34.248125 C11.60875,34.333125 11.741875,34.375 11.875,34.375 C12.016875,34.375 12.159375,34.32625 12.275625,34.23 L27.275625,21.73 C27.4775,21.56125 27.5525,21.285 27.463125,21.0375 C27.373125,20.79 27.138125,20.625 26.875,20.625 L23.063125,20.625 L29.265,11.60375 C29.39625,11.413125 29.41125,11.164375 29.303125,10.959375 Z" opacity=".2"/>
    <path fill="#F5CF87" d="M29.303125,9.709375 C29.195,9.50375 28.981875,9.375 28.75,9.375 L18.125,9.375 C17.888125,9.375 17.671875,9.50875 17.565625,9.720625 L12.565625,19.720625 C12.46875,19.914375 12.47875,20.144375 12.593125,20.32875 C12.7075,20.5125 12.908125,20.625 13.125,20.625 L16.533125,20.625 L11.305,32.24375 C11.185625,32.50875 11.265625,32.821875 11.4975,32.998125 C11.60875,33.083125 11.741875,33.125 11.875,33.125 C12.016875,33.125 12.159375,33.07625 12.275625,32.98 L27.275625,20.48 C27.4775,20.31125 27.5525,20.035 27.463125,19.7875 C27.373125,19.54 27.138125,19.375 26.875,19.375 L23.063125,19.375 L29.265,10.35375 C29.39625,10.163125 29.41125,9.914375 29.303125,9.709375 L29.303125,9.709375 Z"/>
  </g>
</svg>
