<svg xmlns="http://www.w3.org/2000/svg" xmlns:xlink="http://www.w3.org/1999/xlink" width="99" height="99" viewBox="0 0 99 99">
  <defs>
    <circle id="btn-chat-b" cx="45.5" cy="45.5" r="45.5"/>
    <filter id="btn-chat-a" width="115.4%" height="115.4%" x="-7.7%" y="-5.5%" filterUnits="objectBoundingBox">
      <feOffset dy="2" in="SourceAlpha" result="shadowOffsetOuter1"/>
      <feGaussianBlur in="shadowOffsetOuter1" result="shadowBlurOuter1" stdDeviation="2"/>
      <feColorMatrix in="shadowBlurOuter1" values="0 0 0 0 0.541176471   0 0 0 0 0.4   0 0 0 0 0.831372549  0 0 0 1 0"/>
    </filter>
  </defs>
  <g fill="none" fill-rule="evenodd" transform="translate(4 2)">
    <use fill="#000" filter="url(#btn-chat-a)" xlink:href="#btn-chat-b"/>
    <use fill="#FFF" xlink:href="#btn-chat-b"/>
    <g fill="#8A66D4" fill-rule="nonzero" transform="translate(25 29)">
      <path fill-opacity=".5" d="M40.6942735,10 L36.7770938,10 L36.7770938,24.5001776 C36.7770938,25.9567864 35.6084686,27.1365736 34.1656407,27.1365736 L19.9697818,27.1365736 L14,32.4093654 L25.913449,32.4093654 L34.7127402,38.7538522 C35.1057639,39.038583 35.625443,39.0820835 36.06939,38.8540353 C36.504197,38.6286234 36.7770938,38.1764815 36.7770938,37.6821573 L36.7770938,32.4093654 L40.6942735,32.4093654 C41.4150345,32.4093654 42,31.8188127 42,31.0911675 L42,11.318198 C42,10.5905527 41.4150345,10 40.6942735,10 Z"/>
      <path d="M32.6923077,0 L1.30769231,0 C0.584538462,0 0,0.584546702 0,1.30771074 L0,23.5387934 C0,24.2619574 0.584538462,24.8465041 1.30769231,24.8465041 L6.53846154,24.8465041 L6.53846154,32.6927686 C6.53846154,33.2066989 6.83792308,33.6709362 7.30607692,33.8827854 C7.76507692,34.0933268 8.31692308,34.0174796 8.70661538,33.6774748 L18.7993846,24.8465041 L32.6923077,24.8465041 C33.4154615,24.8465041 34,24.2619574 34,23.5387934 L34,1.30771074 C34,0.584546702 33.4154615,0 32.6923077,0 Z"/>
    </g>
  </g>
</svg>
