<svg xmlns="http://www.w3.org/2000/svg" width="64" height="64" viewBox="0 0 64 64">
  <g fill="none">
    <circle cx="32" cy="32" r="32" fill="#1F6ECF"/>
    <path fill="#231F20" d="M35.982,11.003 C35.888,5.481 31.408,0.561 25.875,0.561 C22.675,0.561 19.856,2.235 18,4.692 C16.144,2.235 13.324,0.561 10.125,0.561 C4.592,0.561 0.113,5.482 0.018,11.003 L0,11.003 C0,11.037 0.007,11.068 0.007,11.102 C0.007,11.127 0,11.151 0,11.178 C0,11.333 0.038,11.45 0.045,11.599 C0.54,25.67 17.858,31.439 17.858,31.439 C17.858,31.439 35.43,25.677 35.95,11.621 C35.959,11.464 36,11.34 36,11.178 C36,11.151 35.993,11.126 35.993,11.102 C35.993,11.066 36,11.037 36,11.003 L35.982,11.003 Z" opacity=".2" transform="translate(14 20)"/>
    <path fill="#FFF" d="M49.982,29.003 C49.888,23.481 45.408,18.561 39.875,18.561 C36.675,18.561 33.856,20.235 32,22.692 C30.144,20.235 27.324,18.561 24.125,18.561 C18.592,18.561 14.113,23.482 14.018,29.003 L14,29.003 C14,29.037 14.007,29.068 14.007,29.102 C14.007,29.127 14,29.151 14,29.178 C14,29.333 14.038,29.45 14.045,29.599 C14.54,43.67 31.858,49.439 31.858,49.439 C31.858,49.439 49.43,43.677 49.95,29.621 C49.959,29.464 50,29.34 50,29.178 C50,29.151 49.993,29.126 49.993,29.102 C49.993,29.066 50,29.037 50,29.003 L49.982,29.003 Z"/>
  </g>
</svg>
