<svg xmlns="http://www.w3.org/2000/svg" width="56" height="43" viewBox="0 0 56 43">
  <g fill="#FFF">
    <path d="M35.9796093,36.0572916 C34.2326484,35.4414062 31.7465886,35.2958334 30.1452078,34.9375 C29.2269335,34.7359375 27.8943158,34.2320312 27.4463771,33.6945312 C27.0544308,33.2242187 27.2112094,29.3945312 27.2560032,28.4091146 C27.2672017,28.2635416 27.3119955,28.1179687 27.3791864,27.9835937 C27.6255526,27.5804687 28.185476,26.6174479 28.5326285,25.7440104 C28.8685825,24.8929687 29.2269335,22.9445312 29.383712,22.0151041 C29.4285059,21.7463541 29.5964829,21.5111979 29.8316507,21.3880209 C30.1228109,21.2200521 30.5147572,20.8393229 30.7051312,19.8875 C31.0522836,18.1294271 31.6010085,17.4463541 31.5338177,16.1361979 C31.5002223,15.5539062 31.3434438,15.2403646 31.1754667,15.0723959 C30.9514974,14.8596354 30.8731082,14.5348959 30.9514974,14.24375 C31.1642683,13.3927084 31.4778254,11.7130209 31.5338177,9.1375 C31.634604,4.53515625 28.0286974,0 21.5111894,0 C14.8928953,0 11.3765765,4.53515625 11.4773627,9.1375 C11.533355,11.7130209 11.8469121,13.3927084 12.0484845,14.24375 C12.1156753,14.5460937 12.0372861,14.8596354 11.8245152,15.0723959 C11.6565381,15.2403646 11.4885611,15.5539062 11.4661642,16.1361979 C11.3989734,17.4463541 11.9476983,18.1294271 12.2948508,19.8875 C12.4852248,20.828125 12.8771711,21.2200521 13.1683312,21.3880209 C13.4034991,21.5223959 13.5714761,21.7463541 13.6162699,22.0151041 C13.7730485,22.9445312 14.1313995,24.8929687 14.4673535,25.7440104 C14.814506,26.6174479 15.3856278,27.5916666 15.6207956,27.9835937 C15.6991849,28.1067709 15.7439787,28.2523437 15.7439787,28.4091146 C15.7887726,29.3945312 15.9455511,33.2354166 15.5536048,33.6945312 C15.1056661,34.2320312 13.7730485,34.7359375 12.8547742,34.9375 C11.2533934,35.2958334 8.7673336,35.4414062 7.02037267,36.0572916 C5.43019031,36.6171875 0.827620223,38.3528646 0.0213305755,41.9138021 C-0.101852565,42.4736979 0.323689194,43 0.9060095,43 L42.1051709,43 C42.6762927,43 43.1018345,42.4736979 42.9786514,41.9138021 C42.1723617,38.3528646 37.5697917,36.6171875 35.9796093,36.0572916 Z"/>
    <path d="M52.0816424,25.9635417 C51.1065945,25.6054687 49.7190262,25.5208333 48.8252323,25.3125 C48.3127071,25.1953125 47.5689205,24.9023437 47.3189082,24.5898437 C47.1001474,24.3164062 47.1876517,22.0898437 47.2126529,21.5169271 C47.2189033,21.4322917 47.2439045,21.3476562 47.2814063,21.2695312 C47.4189131,21.0351562 47.7314285,20.4752604 47.925188,19.9674479 C48.1126972,19.4726562 48.3127071,18.3398437 48.4002113,17.7994792 C48.4252126,17.6432292 48.5189672,17.5065104 48.6502237,17.4348958 C48.8127317,17.3372396 49.0314924,17.1158854 49.1377476,16.5625 C49.3315071,15.5403646 49.6377722,15.1432292 49.6002703,14.3815104 C49.5815195,14.0429687 49.4940151,13.8606771 49.4002605,13.7630208 C49.2752544,13.6393229 49.2315022,13.4505208 49.2752544,13.28125 C49.3940102,12.7864583 49.5690188,11.8098958 49.6002703,10.3125 C49.6565231,7.63671875 47.6439241,5 44.0062453,5 C40.3123136,5 38.3497171,7.63671875 38.4059699,10.3125 C38.4372214,11.8098958 38.61223,12.7864583 38.7247355,13.28125 C38.7622374,13.4570312 38.7184853,13.6393229 38.5997294,13.7630208 C38.5059748,13.8606771 38.4122202,14.0429687 38.3997196,14.3815104 C38.3622177,15.1432292 38.6684828,15.5403646 38.8622423,16.5625 C38.9684975,17.109375 39.1872583,17.3372396 39.3497663,17.4348958 C39.4810227,17.5130208 39.5747773,17.6432292 39.5997786,17.7994792 C39.6872829,18.3398437 39.8872927,19.4726562 40.0748019,19.9674479 C40.2685615,20.4752604 40.5873271,21.0416667 40.7185836,21.2695312 C40.7623357,21.3411458 40.787337,21.4257812 40.787337,21.5169271 C40.8123382,22.0898437 40.8998425,24.3229167 40.6810817,24.5898437 C40.4310695,24.9023437 39.6872829,25.1953125 39.1747577,25.3125 C38.2809637,25.5208333 36.8933955,25.6054687 35.9183475,25.9635417 C35.0308039,26.2890625 32.4619276,27.2981771 32.0119054,29.3684896 C31.9431521,29.6940104 32.1806637,30 32.5056797,30 L55.5005606,30 C55.8193262,30 56.0568379,29.6940104 55.9880845,29.3684896 C55.5380624,27.2981771 52.9691861,26.2890625 52.0816424,25.9635417 Z"/>
  </g>
</svg>
