<svg xmlns="http://www.w3.org/2000/svg" width="71" height="16" viewBox="0 0 71 16">
  <path fill="#FFF" d="M35.1261628,0 C31.2802326,0 28.1668605,3.21021793 28.1668605,7.17578125 C28.1668605,11.1413446 31.2802326,14.3515625 35.1261628,14.3515625 C38.972093,14.3515625 42.0854651,11.1413446 42.0854651,7.17578125 C42.0854651,3.21021793 38.972093,0 35.1261628,0 Z M6.95930233,0 C3.11337209,0 0,3.21021793 0,7.17578125 C0,11.1413446 3.11337209,14.3515625 6.95930233,14.3515625 C10.8052326,14.3515625 13.9186047,11.1413446 13.9186047,7.17578125 C13.9186047,3.21021793 10.8052326,0 6.95930233,0 Z M63.3662791,0 C59.5203488,0 56.4069767,3.21021793 56.4069767,7.17578125 C56.4069767,11.1413446 59.5203488,14.3515625 63.3662791,14.3515625 C67.2122093,14.3515625 70.3255814,11.1413446 70.3255814,7.17578125 C70.3255814,3.21021793 67.2122093,0 63.3662791,0 Z" transform="translate(.488 .672)"/>
</svg>
