<svg xmlns="http://www.w3.org/2000/svg" width="31" height="40" viewBox="0 0 31 40">
  <path fill="#FFF" d="M13.36875,21.5384615 L13.36875,16.9230769 L26.0684812,16.9230769 L26.7610406,12.3076923 L13.36875,12.3076923 L13.36875,12.1317308 C13.36875,8.67788462 14.8194531,6.54653846 21.0460937,6.54653846 C23.5904187,6.54653846 26.4582094,6.78673077 30.0737781,7.38711538 L31,1.14096154 C27.3175875,0.300288462 24.1515187,0 20.7367719,0 C9.62220625,0 4.84375,3.96394231 4.84375,11.2913462 L4.84375,12.3076923 L0,12.3076923 L0,16.9230769 L4.84375,16.9230769 L4.84375,21.5384615 L0,21.5384615 L0,26.1538462 L4.84375,26.1538462 L4.84375,28.7086538 C4.84375,36.0359615 9.61939687,40 20.7338656,40 C24.1487094,40 27.3066406,39.6997115 30.9889562,38.8590385 L30.0571156,32.6128846 C26.4415469,33.2132692 23.5877062,33.4534615 21.0433812,33.4534615 C14.8166437,33.4534615 13.3686531,31.6516346 13.3686531,27.3875 L13.3686531,26.1538462 L24.6831687,26.1538462 L25.3756312,21.5384615 L13.36875,21.5384615 Z"/>
</svg>
