<svg xmlns="http://www.w3.org/2000/svg" width="46" height="74" viewBox="0 0 46 74">
  <g fill="#010002">
    <path d="M44.2150704 30.0735302C45.1712288 30.6764803 43.7802074 29.4222366 43.5168587 29.0771181 42.5877105 27.8591319 41.7179845 26.6022024 40.844207 25.3479586 39.8137708 23.8667692 38.8008911 22.3721511 37.8055681 20.8681329 36.5185357 18.924995 33.8945022 18.6832778 31.8012176 18.1568714 28.9030313 17.429034 25.9859379 16.7844548 23.0310304 16.3520496 17.8639937 14.523056 11.0493395 20.1214952 14.6187274 26.1899402 14.7497265 26.4128572 14.8766741 26.63846 15.0063226 26.8613769 12.2877537 30.308533 8.19707046 31.5909771 3.0975591 31.0605421-.0329142333 30.7342239-.778393648 34.3156673.805750108 36.2829769L.805750108 73.4107412 3.0975591 73.4107412 3.0975591 37.5023059C9.28827946 38.1455423 14.4971818 36.3729494 18.3191143 32.6867618 19.8748974 35.4973959 21.3915159 38.3281731 22.8689697 41.1804362 18.8255541 43.952127 15.2939805 47.3093105 12.1999708 51.1754431 11.1371224 52.5022021 11.1411739 53.8799902 11.7326957 54.9892036 11.709737 55.3799798 11.7475512 55.801642 11.8623442 56.2528475 13.0534907 60.9354471 14.2432867 65.6193896 15.4344331 70.3033321 16.6998574 75.2974784 24.6435348 73.8726897 23.3686569 68.8530288 22.1775105 64.1690863 20.9877145 59.483801 19.7965681 54.7998585 19.783063 54.7448007 19.7655064 54.6951143 19.7493004 54.6400565 22.285551 51.6790206 25.231005 49.0671318 28.5546007 47.007164 28.955701 54.8132872 29.3568014 63.101502 29.7606027 70.3248181 30.049611 75.4881664 38.109432 75.0853044 37.8190731 69.9058416 37.2680666 59.9645497 36.7143591 48.0156619 36.159301 38.0757129 36.1093323 37.1692733 35.8162725 36.4387502 35.3760074 35.8720576 35.2436578 35.4315951 35.068092 34.9857611 34.838506 34.5358985 33.2692178 31.496976 31.6526619 28.4795394 29.9874878 25.4862746 30.68705 25.6715911 31.3825607 25.8609362 32.0767208 26.0502814 34.3563753 29.7284117 36.8804713 34.4271258 40.3620763 36.6254096 44.5337899 39.262813 48.3611244 32.6894476 44.2150704 30.0735302zM18 4.11219639C16.9553902.946190106 13.2579323-.751466764 9.74473755.322109031 6.23154281 1.39698771 4.23174512 4.83399371 5.27770977 8L18 4.11219639zM2.64461219 12.9544519L22.5526047 6.23043024C22.8499156 6.12975868 23.0459303 5.89346014 22.9906778 5.70190453L18.4639216 5 5.58746418 9.34985056 2 12.7908606C2.05788354 12.9838144 2.34598573 13.0551235 2.64461219 12.9544519zM15.3602367 16.6717531C18.8647249 15.5167536 20.7996088 11.6330501 19.6845444 8L7 12.1898994C8.11369119 15.8215254 11.8598682 17.8310251 15.3602367 16.6717531z"/>
  </g>
</svg>
