<svg xmlns="http://www.w3.org/2000/svg" width="54" height="49" viewBox="0 0 54 49">
  <path fill="#FFF" d="M52.6878416,40.1604743 C45.9637446,39.1396076 45.4574902,38.6674567 45.4574902,38.6674567 C47.4825078,29.2244392 42.5497726,19.3858359 35.553077,13.7072646 C26.2328036,6.15285059 12.070661,11.6400094 1.03691109,0.155258408 C-1.5333036,-2.52451682 -0.0405021412,30.2070235 13.7711566,42.6105545 C23.870283,51.670747 35.7607711,48.8888851 39.0189726,47.4086283 C41.9786138,46.0559798 44.042574,43.0827054 44.042574,43.0827054 C49.4296402,44.7416139 52.090721,44.8947439 52.090721,44.8947439 C53.9859299,45.1244389 54.9465151,40.5050169 52.6878416,40.1604743 Z M40.7713917,41.1047761 C30.6852462,38.1315016 21.9101698,30.7685002 16.2245433,25.000603 C15.7572316,24.5284522 16.4322375,23.8266063 16.9384919,24.234953 C22.5332521,28.7650492 31.0746727,34.4436205 42.0305373,38.0038933 C42.056499,39.0375209 41.4463976,40.5177777 40.7713917,41.1047761 Z"/>
</svg>
