<svg xmlns="http://www.w3.org/2000/svg" width="50" height="50" viewBox="0 0 50 50">
  <path d="M25,0 C11.1899038,0 0,11.1899038 0,25 C0,38.8100962 11.1899038,50 25,50 C38.8100962,50 50,38.8100962 50,25 C50,11.1899038 38.8100962,0 25,0 Z M42.2235577,31.71875 C41.25,31.40625 39.375,31.3100962 38.6778846,30.46875 C38.3293269,30.0480769 38.5576923,28.4735577 38.5576923,28.4735577 C41.5865385,28.3052885 42.2836538,27.7403846 42.2836538,27.7403846 C42.7524038,27.4639423 42.5360577,27.4158654 42.2956731,27.0072115 C40.9855769,24.8076923 41.5745192,22.0192308 41.5144231,19.6033654 C41.4663462,17.5961538 40.9375,15.3966346 39.1105769,14.2668269 C38.1971154,13.7019231 36.7427885,13.4375 35.3365385,13.4375 C34.1947115,13.4375 33.0889423,13.6057692 32.2956731,13.9302885 C27.1995192,15.9735577 30.2043269,22.7283654 28.4615385,26.5985577 C28.1610577,27.2475962 27.7283654,27.4759615 28.4855769,27.8605769 C28.4855769,27.8605769 29.3870192,28.3894231 31.9591346,28.6177885 C31.9591346,28.6177885 31.9951923,30.1322115 31.9591346,30.2884615 C31.8269231,30.8774038 30.5408654,31.2860577 30.0600962,31.4182692 C29.7355769,31.5024038 29.0144231,31.71875 28.0889423,32.1033654 C27.6442308,32.2836538 27.7163462,32.9326923 28.1850962,33.0168269 C28.6538462,33.1009615 29.1586538,33.2211538 29.5673077,33.3653846 C29.5673077,33.3653846 32.7403846,34.0865385 35.0961538,36.3701923 C36.6826923,37.8966346 37.2716346,39.6875 37.5,41.7307692 C37.5600962,42.2716346 37.2956731,42.8004808 36.8389423,43.1129808 L36.1538462,43.5456731 C35.9254808,43.6778846 35.6490385,43.5216346 35.6370192,43.2572115 C35.6370192,39.7115385 33.4975962,36.5865385 30.1322115,35.4206731 C28.5096154,34.8557692 26.7548077,34.8197115 25.1322115,34.2548077 C24.6394231,34.0865385 23.6658654,33.8822115 23.4615385,33.3173077 C23.2692308,32.7644231 23.2692308,32.1153846 23.2331731,31.5384615 C23.2091346,31.0817308 23.1971154,30.625 23.1971154,30.1682692 C23.1971154,29.8677885 23.9663462,29.2307692 24.1346154,28.9543269 C24.7836538,27.8725962 24.84375,26.4182692 24.9639423,25.1923077 C26.0096154,25.4807692 26.1418269,23.5456731 26.3221154,22.9567308 C26.4543269,22.5480769 26.9230769,20.4447115 26.0096154,20.1201923 C26.3100962,19.5913462 26.4302885,18.9423077 26.5144231,18.3533654 C26.7548077,16.8149038 26.8509615,15.1322115 26.3822115,13.6298077 C25.4086538,10.5048077 22.4158654,8.75 19.2548077,8.65384615 C16.0456731,8.54567308 12.8245192,10.0841346 11.6225962,13.1971154 C11.0456731,14.7115385 11.09375,16.3581731 11.2860577,17.9447115 C11.3701923,18.6658654 11.4903846,19.4711538 11.8509615,20.1201923 C11.0817308,20.4567308 11.3100962,22.2475962 11.4423077,22.6802885 C11.6346154,23.2932692 11.8028846,25.4927885 12.8966346,25.1923077 C12.9927885,26.1658654 13.1009615,27.1634615 13.3653846,28.1129808 C13.5456731,28.75 13.9182692,29.2908654 14.3509615,29.7836538 C14.5673077,30.0240385 14.6754808,30.0480769 14.6634615,30.3605769 C14.6514423,31.2980769 14.6754808,32.3076923 14.4350962,33.2211538 C14.1947115,34.1346154 12.1875,34.5192308 11.3822115,34.6875 C9.60336538,35.0480769 7.94471154,35.2524038 6.40625,36.0697115 C4.42307692,32.7644231 3.36538462,28.9663462 3.36538462,25 C3.36538462,19.2427885 5.67307692,13.7019231 9.75961538,9.65144231 C13.7860577,5.64903846 19.1225962,3.41346154 24.7956731,3.36538462 C30.5168269,3.31730769 36.0576923,5.54086538 40.15625,9.55528846 C44.3389423,13.6538462 46.6466346,19.1586538 46.6466346,25 C46.6466346,27.9927885 46.0456731,30.8774038 44.9038462,33.5456731 C44.2307692,32.7043269 43.2932692,32.0673077 42.2235577,31.71875 Z"/>
</svg>
