<svg xmlns="http://www.w3.org/2000/svg" width="54" height="11" viewBox="0 0 54 11">
  <path fill="#FFF" d="M26.971875,0 C24.01875,0 21.628125,2.46052632 21.628125,5.5 C21.628125,8.53947368 24.01875,11 26.971875,11 C29.925,11 32.315625,8.53947368 32.315625,5.5 C32.315625,2.46052632 29.925,0 26.971875,0 Z M5.34375,0 C2.390625,0 0,2.46052632 0,5.5 C0,8.53947368 2.390625,11 5.34375,11 C8.296875,11 10.6875,8.53947368 10.6875,5.5 C10.6875,2.46052632 8.296875,0 5.34375,0 Z M48.65625,0 C45.703125,0 43.3125,2.46052632 43.3125,5.5 C43.3125,8.53947368 45.703125,11 48.65625,11 C51.609375,11 54,8.53947368 54,5.5 C54,2.46052632 51.609375,0 48.65625,0 Z"/>
</svg>
