<svg xmlns="http://www.w3.org/2000/svg" width="52" height="11" viewBox="0 0 52 11">
  <path fill="#FFF" d="M25.9729167,0 C23.1291667,0 20.8270834,2.46052632 20.8270834,5.5 C20.8270834,8.53947371 23.1291667,11 25.9729167,11 C28.8166666,11 31.11875,8.53947371 31.11875,5.5 C31.11875,2.46052632 28.8166666,0 25.9729167,0 Z M5.14583334,0 C2.30208333,0 0,2.46052632 0,5.5 C0,8.53947371 2.30208333,11 5.14583334,11 C7.98958336,11 10.2916667,8.53947371 10.2916667,5.5 C10.2916667,2.46052632 7.98958336,0 5.14583334,0 Z M46.8541667,0 C44.0104166,0 41.7083333,2.46052632 41.7083333,5.5 C41.7083333,8.53947371 44.0104166,11 46.8541667,11 C49.6979167,11 52,8.53947371 52,5.5 C52,2.46052632 49.6979167,0 46.8541667,0 Z"/>
</svg>
