<svg xmlns="http://www.w3.org/2000/svg" width="53" height="50" viewBox="0 0 53 50">
  <g>
    <path d="M47.9200578,0 L5.06899401,0 C2.27721545,0 0,2.83544304 0,6.31158715 L0,35.6884129 C0,39.164557 2.27721545,42 5.06899401,42 L47.931006,42 C50.7227845,42 53,39.164557 53,35.6884129 L53,6.31158715 C52.9890518,2.83544304 50.7118364,0 47.9200578,0 Z M49.9235695,35.6747809 C49.9235695,37.0516066 49.0258211,38.1694255 47.9200578,38.1694255 L5.06899401,38.1694255 C3.96323074,38.1694255 3.06548234,37.0516066 3.06548234,35.6747809 L3.06548234,6.31158715 C3.06548234,4.93476144 3.96323074,3.81694255 5.06899401,3.81694255 L47.931006,3.81694255 C49.0367693,3.81694255 49.9345177,4.93476144 49.9345177,6.31158715 L49.9345177,35.6747809 L49.9235695,35.6747809 Z"/>
    <path d="M46.65625,6 L6.34375,6 C5.6046875,6 5,6.77647059 5,7.7254902 L5,34.1830065 C5,35.1320261 5.6046875,35.9084967 6.34375,35.9084967 L46.65625,35.9084967 C47.3953125,35.9084967 48,35.1320261 48,34.1830065 L48,7.7254902 C48,6.77647059 47.3953125,6 46.65625,6 Z M39.265625,45.9738562 L13.734375,45.9738562 C12.8721354,45.9738562 12.1666667,46.8797386 12.1666667,47.9869281 C12.1666667,49.0941176 12.8721354,50 13.734375,50 L39.265625,50 C40.1278646,50 40.8333333,49.0941176 40.8333333,47.9869281 C40.8333333,46.8797386 40.1278646,45.9738562 39.265625,45.9738562 Z"/>
  </g>
</svg>
