<svg xmlns="http://www.w3.org/2000/svg" width="50" height="50" viewBox="0 0 50 50">
  <path d="M45.8723958,24.9934913 C45.8723958,22.2598282 47.578125,19.9297058 50,18.9924499 C49.3619792,16.323874 48.3072917,13.8245249 46.9140625,11.5594897 C46.0807292,11.9239781 45.1953125,12.1192398 44.296875,12.1192398 C42.65625,12.1192398 41.015625,11.4944025 39.7526042,10.2447279 C37.8125,8.30512887 37.3828125,5.45430877 38.4244792,3.08513408 C36.171875,1.69226764 33.6588542,0.637854725 31.0026042,1.84988997e-15 C30.078125,2.40822702 27.734375,4.12652955 25,4.12652955 C22.265625,4.12652955 19.921875,2.40822702 18.9973958,0 C16.328125,0.637854725 13.828125,1.69226764 11.5625,3.08513408 C12.6171875,5.44129133 12.1744792,8.30512887 10.234375,10.2447279 C8.984375,11.4944025 7.33072917,12.1192398 5.69010417,12.1192398 C4.79166667,12.1192398 3.90625,11.9369956 3.07291667,11.5594897 C1.69270833,13.8375423 0.638020833,16.3368914 0,19.0054673 C2.40885417,19.9297058 4.12760417,22.2598282 4.12760417,25.0065087 C4.12760417,27.7401718 2.421875,30.0702942 0.0130208333,31.0075501 C0.651041667,33.676126 1.70572917,36.1754751 3.09895833,38.4405103 C3.93229167,38.0760219 4.81770833,37.8937777 5.703125,37.8937777 C7.34375,37.8937777 8.984375,38.5186149 10.2473958,39.7682895 C12.1744792,41.6948711 12.6171875,44.5587087 11.5755208,46.9148659 C13.8411458,48.3077324 16.3541667,49.3621453 19.0104167,50 C19.9348958,47.591773 22.265625,45.8864879 25,45.8864879 C27.734375,45.8864879 30.0651042,47.591773 30.9895833,50 C33.6588542,49.3621453 36.1588542,48.3077324 38.4244792,46.9148659 C37.3828125,44.5587087 37.8255208,41.7078886 39.7526042,39.7682895 C41.0026042,38.5186149 42.6432292,37.8937777 44.296875,37.8937777 C45.1822917,37.8937777 46.0807292,38.0760219 46.9010417,38.4405103 C48.2942708,36.1754751 49.3489583,33.6631086 49.9869792,31.0075501 C47.5911458,30.0702942 45.8723958,27.7401718 45.8723958,24.9934913 Z M25.1171875,35.3944285 C19.3489583,35.3944285 14.7005208,30.7211664 14.7005208,24.9804738 C14.7005208,19.2397813 19.3489583,14.5665191 25.1171875,14.5665191 C30.8854167,14.5665191 35.5338542,19.2397813 35.5338542,24.9804738 C35.5338542,30.7211664 30.8854167,35.3944285 25.1171875,35.3944285 Z"/>
</svg>
