<svg xmlns="http://www.w3.org/2000/svg" width="30" height="48" viewBox="0 0 30 48">
  <g fill="#FFF">
    <path d="M28.8359155 19.9779417C29.459497 20.3625823 28.5523092 19.5624613 28.38056 19.3422995 27.7745938 18.5653083 27.2073812 17.7634739 26.6375263 16.9633529 25.9655027 16.0184562 25.304929 15.0649929 24.6558053 14.105533 23.8164363 12.8659451 22.1051101 12.7117462 20.7399245 12.3759352 18.849803 11.9116252 16.9473508 11.5004281 15.0202372 11.2245833 11.6504307 10.0578116 7.20609099 13.6292297 9.53395263 17.5004791 9.61938683 17.6426848 9.70217873 17.7866038 9.78673216 17.9288094 8.01375241 20.1278573 5.34591552 20.9459682 2.02014724 20.6075872-.0214658043 20.3994187-.507648031 22.6841326.525489201 23.9391404L.525489201 47.6240935 2.02014724 47.6240935 2.02014724 24.7169883C6.05757356 25.1273287 9.45468379 23.9965367 11.9472485 21.6450032 12.9618896 23.4379939 13.9509886 25.2438346 14.9145454 27.0633817 12.2775353 28.8315293 9.97433509 30.9731809 7.95650269 33.4395068 7.26334071 34.2858875 7.26598301 35.1648213 7.65175804 35.872423 7.63678503 36.1217112 7.66144645 36.3907027 7.73631147 36.6785407 8.51314611 39.6657163 9.28909999 42.6537486 10.0659346 45.6417808 10.8912114 48.8277017 16.0718705 47.9187848 15.2404284 44.7165874 14.4635938 41.7285551 13.6876399 38.7396661 12.9108053 35.7516339 12.9019976 35.7165108 12.8905477 35.6848143 12.8799785 35.6496912 14.534055 33.7607545 16.4550032 32.0945496 18.6225657 30.7804322 18.8841529 35.7602005 19.14574 41.0475099 19.4090887 45.6554874 19.5975724 48.9493475 24.8539774 48.6923493 24.6646129 45.3882093 24.3052608 39.0463506 23.9441472 31.4237843 23.5821528 25.0827824 23.5495645 24.5045364 23.3584386 24.038513 23.0713092 23.6770023 22.9849942 23.3960176 22.8704948 23.1116062 22.7207648 22.8246249 21.697316 20.8860019 20.6430404 18.9610855 19.5570572 17.0515889 20.0132935 17.1698081 20.4668874 17.2905973 20.9196005 17.4113864 22.4063317 19.7577799 24.0524813 22.7552354 26.3230932 24.1575889 29.043776 25.8400704 31.5398637 21.6467166 28.8359155 19.9779417zM12 2.57012275C11.2768086.591368816 8.71703005-.469666727 6.2848183.201318144 3.85260656.873117318 2.46813123 3.02124607 3.19226061 5L12 2.57012275zM1.42974146 7.97153243L14.7017364 3.7690189C14.8999437 3.70609917 15.0306202 3.55841259 14.9937852 3.43869033L11.9759477 3 3.39164279 5.7186566 1 7.86928787C1.03858903 7.98988402 1.23065715 8.03445216 1.42974146 7.97153243zM9.78785618 9.8176406C12.2140403 9.17597423 13.5535754 7.01836117 12.7816077 5L4 7.3277219C4.77101698 9.34529187 7.36452415 10.4616806 9.78785618 9.8176406z"/>
  </g>
</svg>
