<svg xmlns="http://www.w3.org/2000/svg" width="215" height="215" viewBox="0 0 215 215">
  <g fill="#D0021B" transform="translate(-12 -12)">
    <g transform="rotate(45 20.86 52.065)">
      <path d="M218.957505,-3.26849658e-13 L27.4703532,-3.26849658e-13 C12.2587569,-3.26849658e-13 0,12.9014272 0,28.8703266 C0,45.1098854 12.2587569,57.7406533 27.3808732,57.7406533 L218.868025,57.7406533 L218.957505,-3.26849658e-13 Z"/>
      <path d="M276.224691,-3.26849658e-13 L84.7375389,-3.26849658e-13 C69.5259427,-3.26849658e-13 57.2671857,12.9014272 57.2671857,28.8703266 C57.2671857,45.1098854 69.5259427,57.7406533 84.6480589,57.7406533 L276.135211,57.7406533 L276.224691,-3.26849658e-13 Z" transform="matrix(-1 0 0 1 333.492 0)"/>
    </g>
    <g transform="rotate(-45 238.14 97.935)">
      <path d="M218.957505,-3.26849658e-13 L27.4703532,-3.26849658e-13 C12.2587569,-3.26849658e-13 0,12.9014272 0,28.8703266 C0,45.1098854 12.2587569,57.7406533 27.3808732,57.7406533 L218.868025,57.7406533 L218.957505,-3.26849658e-13 Z"/>
      <path d="M276.224691,-3.26849658e-13 L84.7375389,-3.26849658e-13 C69.5259427,-3.26849658e-13 57.2671857,12.9014272 57.2671857,28.8703266 C57.2671857,45.1098854 69.5259427,57.7406533 84.6480589,57.7406533 L276.135211,57.7406533 L276.224691,-3.26849658e-13 Z" transform="matrix(-1 0 0 1 333.492 0)"/>
    </g>
  </g>
</svg>
