<svg xmlns="http://www.w3.org/2000/svg" width="15" height="15" viewBox="0 0 15 15">
  <path fill="#5BC0EB" d="M4.42492788,6.07507212 L3.375,7.125 L6.75,10.5 L14.25,3 L13.2000721,1.95007212 L6.75,8.36242788 L4.42492788,6.07507212 Z M13.5,7.5 C13.5,10.7999279 10.7998918,13.5 7.5,13.5 C4.20010817,13.5 1.5,10.7999279 1.5,7.5 C1.5,4.20007212 4.20007212,1.5 7.5,1.5 C8.0625,1.5 8.625,1.57507212 9.15014423,1.72503606 L10.3125,0.5625 C9.45007212,0.1875 8.51257212,0 7.5,0 C3.375,0 0,3.375 0,7.5 C0,11.625 3.375,15 7.5,15 C11.625,15 15,11.625 15,7.5 L13.5,7.5 Z"/>
</svg>
