<svg xmlns="http://www.w3.org/2000/svg" width="81" height="62" viewBox="0 0 81 62">
  <g>
    <path d="M51.8775762,51.9895833 C49.3587023,51.1015625 45.774151,50.8916667 43.4651833,50.375 C42.1411599,50.084375 40.2197112,49.3578125 39.5738461,48.5828125 C39.0087142,47.9046875 39.234767,42.3828125 39.2993535,40.9619792 C39.3155001,40.7520833 39.3800866,40.5421875 39.4769664,40.3484375 C39.8321922,39.7671875 40.6395235,38.3786458 41.140069,37.1192708 C41.6244678,35.8921875 42.1411599,33.0828125 42.3672127,31.7427083 C42.4317992,31.3552083 42.6739986,31.0161458 43.0130778,30.8385417 C43.4328901,30.5963542 43.998022,30.0473958 44.2725147,28.675 C44.7730601,26.1401042 45.5642449,25.1552083 45.4673651,23.2661458 C45.4189252,22.4265625 45.1928724,21.9744792 44.950673,21.7322917 C44.6277405,21.4255208 44.5147141,20.9572917 44.6277405,20.5375 C44.9345264,19.3104167 45.386632,16.8885417 45.4673651,13.175 C45.6126848,6.5390625 40.4134707,0 31.0161336,0 C21.4734769,0 16.4034359,6.5390625 16.5487555,13.175 C16.6294886,16.8885417 17.0815942,19.3104167 17.3722335,20.5375 C17.4691133,20.9734375 17.3560869,21.4255208 17.049301,21.7322917 C16.8071015,21.9744792 16.5649021,22.4265625 16.5326089,23.2661458 C16.4357291,25.1552083 17.2269139,26.1401042 17.7274593,28.675 C18.001952,30.03125 18.5670839,30.5963542 18.9868962,30.8385417 C19.3259754,31.0322917 19.5681748,31.3552083 19.6327613,31.7427083 C19.8588141,33.0828125 20.3755062,35.8921875 20.859905,37.1192708 C21.3604505,38.3786458 22.1839285,39.7833333 22.5230076,40.3484375 C22.636034,40.5260417 22.7006205,40.7359375 22.7006205,40.9619792 C22.765207,42.3828125 22.9912598,47.9208333 22.4261279,48.5828125 C21.7802628,49.3578125 19.8588141,50.084375 18.5347907,50.375 C16.225823,50.8916667 12.6412717,51.1015625 10.1223978,51.9895833 C7.82957673,52.796875 1.19331288,55.2994792 0.0307557136,60.4338542 C-0.146857187,61.2411458 0.466714652,62 1.30633928,62 L60.7097813,62 C61.5332593,62 62.1468312,61.2411458 61.9692183,60.4338542 C60.8066611,55.2994792 54.1703973,52.796875 51.8775762,51.9895833 Z"/>
    <path d="M30.1224636,30.1875 C28.6598917,29.671875 26.5785393,29.55 25.2378484,29.25 C24.4690606,29.08125 23.3533807,28.659375 22.9783623,28.209375 C22.6502211,27.815625 22.7814776,24.609375 22.8189794,23.784375 C22.8283549,23.6625 22.8658567,23.540625 22.9221095,23.428125 C23.1283696,23.090625 23.5971427,22.284375 23.887782,21.553125 C24.1690458,20.840625 24.4690606,19.209375 24.600317,18.43125 C24.6378189,18.20625 24.7784508,18.009375 24.9753355,17.90625 C25.2190975,17.765625 25.5472386,17.446875 25.7066214,16.65 C25.9972607,15.178125 26.4566583,14.60625 26.4004055,13.509375 C26.3722792,13.021875 26.2410227,12.759375 26.1003908,12.61875 C25.9128816,12.440625 25.8472533,12.16875 25.9128816,11.925 C26.0910153,11.2125 26.3535282,9.80625 26.4004055,7.65 C26.4847847,3.796875 23.4658862,0 18.0093679,0 C12.4684704,0 9.52457566,3.796875 9.60895481,7.65 C9.65583212,9.80625 9.91834502,11.2125 10.0871033,11.925 C10.1433561,12.178125 10.0777279,12.440625 9.8995941,12.61875 C9.75896219,12.759375 9.61833027,13.021875 9.59957935,13.509375 C9.54332658,14.60625 10.0027242,15.178125 10.2933635,16.65 C10.4527463,17.4375 10.7808874,17.765625 11.0246494,17.90625 C11.2215341,18.01875 11.362166,18.20625 11.3996679,18.43125 C11.5309243,19.209375 11.8309391,20.840625 12.1122029,21.553125 C12.4028422,22.284375 12.8809907,23.1 13.0778754,23.428125 C13.1435036,23.53125 13.1810055,23.653125 13.1810055,23.784375 C13.2185073,24.609375 13.3497638,27.825 13.0216226,28.209375 C12.6466042,28.659375 11.5309243,29.08125 10.7621365,29.25 C9.42144559,29.55 7.34009324,29.671875 5.87752131,30.1875 C4.54620584,30.65625 0.692891352,32.109375 0.0178581563,35.090625 C-0.0852719153,35.559375 0.270995605,36 0.758519579,36 L35.2508408,36 C35.7289893,36 36.0852568,35.559375 35.9821267,35.090625 C35.3070935,32.109375 31.4537791,30.65625 30.1224636,30.1875 Z" transform="translate(45 8)"/>
  </g>
</svg>
