<svg xmlns="http://www.w3.org/2000/svg" width="52" height="48" viewBox="0 0 52 48">
  <g fill="#FFF">
    <path d="M28.3327894,1.10769231 C27.3046936,0.426923077 25.7844243,0 24.1875946,0 C22.6235765,0 20.8736262,0.288461538 19.0799271,1.06153846 C13.994134,3.25384615 10.9864069,6.3 10.2098664,7.10769231 C9.44426314,7.91538462 8.37241857,9.18461538 7.70525001,10.1769231 C7.03808145,11.1807692 7.91305661,12.6 7.03808145,13.5230769 C6.16310629,14.4461538 4.33659564,13.5230769 4.33659564,13.5230769 C4.18347499,13.5230769 4.01941714,13.5807692 3.91004525,13.7076923 L0.180463627,17.6192308 C-0.0601545423,17.8615385 -0.0601545423,18.2769231 0.180463627,18.5192308 L7.12557897,25.8 C7.24588805,25.9269231 7.3990087,25.9846154 7.55212936,25.9846154 C7.70525001,25.9846154 7.86930785,25.9269231 7.97867975,25.8 L11.6098267,21.7846154 C11.8504448,21.5423077 11.8504448,21.1269231 11.6098267,20.8846154 C11.6098267,20.8846154 11.0301556,20.2846154 10.2864267,19.5 C9.54269785,18.7153846 10.3739242,17.2730769 10.8660978,16.8 C11.3582713,16.3269231 12.1348118,16.0153846 13.1738448,16.0153846 C13.6441439,16.0153846 13.9831968,16.0961538 14.4206844,16.2230769 C15.7550215,16.6153846 17.2424793,18.0576923 19.9877138,20.9307692 L19.5611634,21.6807692 C19.3096081,22.1192308 19.4627287,22.6384615 19.7033469,22.8807692 C19.7033469,22.8807692 19.1564874,22.3153846 21.1361187,24.3923077 L26.6047135,18.9461538 C24.5157103,16.7653846 25.018821,17.3192308 25.018821,17.3192308 C24.8657004,17.1576923 24.6032078,17.0538462 24.3297781,17.0538462 C24.1766574,17.0538462 24.0125996,17.0884615 23.8704161,17.1692308 L23.2579335,17.5153846 C20.1955204,14.3076923 19.3971056,12.8769231 19.5064775,10.3961538 C19.6267866,7.81153846 20.8517518,6.11538462 22.8423203,4.31538462 C25.5438061,1.88076923 29.4702571,2.56153846 29.4702571,2.56153846 C30.3452323,2.55 29.0108952,1.56923077 28.3327894,1.10769231 L28.3327894,1.10769231 Z M48.8290826,40.6038462 C48.8290826,40.6038462 41.293359,34.0038462 34.5888618,27.2538462 L29.3718224,33.0923077 C35.7700783,40.0846154 41.9386532,47.8153846 41.9386532,47.8153846 C42.0589623,47.9423077 42.2120829,48 42.3652036,48 C42.5183242,48 42.6823821,47.9423077 42.791754,47.8153846 L48.8181454,41.5038462 C49.0587635,41.2615385 49.0587635,40.8461538 48.8290826,40.6038462 Z"/>
    <path d="M50.1645057,8.89744824 L44.4919294,14.9754454 L38.9600849,13.9008185 L37.9641364,7.99614829 L43.6367127,1.91815118 C42.4350792,0.635532017 40.7354714,0 39.4147571,0 C39.3389784,0 39.2631997,0 39.1982465,0.0115551276 C37.8450556,0.0808858931 34.9546399,0.901299952 32.7137557,3.44342802 C30.5486503,5.88155994 28.264464,10.4458353 30.2888376,15.4954261 C30.5269992,16.1078479 30.7976374,16.9051517 29.9965484,17.7717862 C29.8341655,17.933558 28.9248212,18.8579682 27.5608047,20.2330284 C27.1710858,20.6259027 26.7597157,21.0418873 26.3050436,21.5040924 C25.4390014,22.3822821 24.4538784,23.3760231 23.4038023,24.4159846 C22.9924322,24.8319692 22.5702367,25.2479538 22.1480411,25.6870486 C15.9774906,31.9037073 8.41044703,39.4954261 8.41044703,39.4954261 C6.46185212,41.2864709 6.60258397,44.5912374 8.3996215,46.5209437 C9.31979132,47.4915744 10.564727,48 11.7880115,48 C12.9788195,48 14.158802,47.5146846 14.9815421,46.4862783 C14.9815421,46.4862783 22.0722624,38.4207992 27.8963961,31.8228214 C28.2969406,31.3606163 28.6974851,30.9215214 29.0872041,30.4708714 C30.0939781,29.3269138 31.035799,28.2638421 31.8801901,27.3163216 C32.3023857,26.8310063 32.7029302,26.3803563 33.0709981,25.9759268 C34.3159338,24.5662013 35.1603249,23.6186808 35.3443588,23.4337987 C35.7773799,22.9831488 36.1779244,22.8444872 36.5459924,22.8444872 C36.9032348,22.8444872 37.2171751,22.9831488 37.4769877,23.1218103 C38.5487149,23.7111218 39.7503484,23.9653346 40.9844585,23.9653346 C43.8748743,23.9653346 46.9384985,22.5324988 48.7896637,20.556572 C51.4310923,17.7371208 51.9074155,15.0216659 51.9940198,13.6234954 C52.0589729,12.2599904 51.6043008,10.4342802 50.1645057,8.89744824 L50.1645057,8.89744824 Z M13.1628535,43.655272 C12.5674495,44.2792489 11.6039776,44.2792489 11.0193991,43.655272 C10.4348206,43.01974 10.4348206,41.9913337 11.0193991,41.3673568 C11.6148031,40.7433799 12.578275,40.7433799 13.1628535,41.3673568 C13.747432,42.0028888 13.747432,43.0312951 13.1628535,43.655272 Z"/>
  </g>
</svg>
