<svg xmlns="http://www.w3.org/2000/svg" width="69" height="44" viewBox="0 0 69 44">
  <g>
    <path d="M57.7292068 23.7099851L50.9601604 10.196063C50.8835804 10.0466562 50.7821638 9.90755346 50.6531507 9.79111927 50.5237927 9.67502854 50.3789117 9.58984955 50.2278215 9.53592575L42.2904135 6.69548107C41.7374511 6.49764599 41.1451638 6.39151571 40.5287297 6.39701113 39.9129856 6.40353694 39.323458 6.52134499 38.7732552 6.72982744L32.7506908 9.01729559C32.3267414 9.17872352 31.9058967 9.36419391 31.4909161 9.57542407 31.3522443 9.64686452 31.2159872 9.72414385 31.08042 9.80004932 30.6257697 9.55481625 30.151112 9.33877759 29.655757 9.15502452 28.0758644 8.56701469 26.4580268 8.36849268 24.8922774 8.50175659L20.8404392 8.84796799C20.6641674 8.86308039 20.4861708 8.91734765 20.3199026 9.01454788 20.1536344 9.11209156 20.0163424 9.24363815 19.9083716 9.39579257L10.7850092 22.3275438C10.5970089 22.5930412 10.4966271 22.9310095 10.5273281 23.2885552 10.5573391 23.6461009 10.7118788 23.9596832 10.9402389 24.1849954L14.9085979 28.1008248C14.6909315 28.4975254 14.5529496 28.9429978 14.5212138 29.4197254 14.4639513 30.2763238 14.7464692 31.1033844 15.3142647 31.7487526 15.88275 32.3937774 16.6689019 32.7801741 17.5299088 32.8361587 17.5757878 32.8392498 17.6223567 32.8392498 17.6689256 32.8409672 17.3160369 33.9768016 17.604764 35.2668512 18.5240683 36.1330666 19.0742711 36.6516968 19.7797035 36.9539448 20.5292901 37.0023732 20.0463535 38.1941922 20.3074842 39.6154449 21.2943997 40.5452011 21.8963456 41.11329 22.6835323 41.4254985 23.5131484 41.4254985 24.376915 41.4254985 25.1827292 41.089591 25.7912293 40.4830342 26.0175196 41.9386333 27.2321052 43.099197 28.7681886 43.199145 28.8389043 43.2039535 28.9113448 43.2070446 28.9820605 43.2070446 29.374619 43.2070446 29.7506196 43.1332 30.1004037 43.0033707 30.6716487 43.3825546 31.3525893 43.5913805 32.0773392 43.5621861 32.9680122 43.525092 33.7669274 43.1338869 34.3643889 42.5218346L32.1818604 40.3535483C32.1870348 40.3034026 32.1963485 40.2553177 32.1984183 40.2034547 32.2267046 39.7775597 32.1680623 39.3654033 32.040774 38.9824413L36.5075926 43.4186183C37.0712486 43.6470216 37.6845781 43.761395 38.3234342 43.7356353 39.6018364 43.6837722 40.7405319 43.0827108 41.5470361 42.1526111L41.9940974 41.6363852C42.0354919 41.5876134 42.0672278 41.5326592 42.0948242 41.4735834L35.217462 34.6448384C35.0401552 34.4700154 35.0260121 34.1791017 35.1833114 33.9960355 35.3409557 33.8139998 35.6141599 33.8078174 35.7900868 33.9826405L43.9693081 42.1038393C44.4149896 42.2594283 44.892062 42.3353338 45.3877619 42.3150695 46.5116244 42.2693888 47.5144077 41.7407982 48.2232897 40.9216373L49.3033429 39.6769249C49.5510204 39.3897892 49.698661 39.0023622 49.6848628 38.5812757L42.50739 31.4564651C42.332153 31.2812986 42.3162851 30.9896979 42.4735844 30.8080056 42.6322636 30.6256264 42.9047778 30.6194441 43.0803598 30.7942671L50.2916381 37.9537676C50.5876093 38.0324208 50.8984135 38.0708887 51.2178416 38.0581805 52.1392156 38.0210865 52.958828 37.5883222 53.5390419 36.9175376L53.8291488 36.583004C54.4097076 35.9135933 54.7519026 35.0068492 54.7170622 34.0207649 54.6818768 33.0350241 54.2782798 32.1591918 53.652532 31.5375225L51.7273397 29.6264905 52.2137258 30.1087136 57.4190925 25.4286774C57.6402085 25.2308423 57.8006124 24.9536671 57.8592547 24.6280635 57.9175521 24.3028034 57.864774 23.9816649 57.7292068 23.7099851L57.7292068 23.7099851zM17.620287 31.4506262C17.132176 31.4190275 16.6858046 31.1998977 16.3625821 30.8330785 16.0397044 30.4672896 15.8803354 29.9977748 15.9127611 29.5107433 15.974508 28.5548838 16.7782525 27.8064765 17.7379165 27.8064765 17.7786212 27.8064765 17.8200157 27.8075069 17.8607204 27.8099111 18.3488313 27.8421967 18.7952027 28.0609831 19.1184253 28.4278023 19.4413029 28.794278 19.600672 29.2634494 19.5692811 29.7504809 19.5023599 30.7468691 18.6327291 31.5179451 17.620287 31.4506262zM20.7410923 35.6237099C20.270919 35.6237099 19.8238577 35.4471696 19.4823525 35.1253441 18.7576027 34.4432253 18.7182778 33.2936523 19.3909395 32.5668831 19.42578 32.5308195 20.1405261 31.7779471 20.4834111 31.418684L20.6634775 31.2280617C21.0132616 30.8605556 21.4858495 30.657912 21.9943128 30.657912 22.464831 30.657912 22.9122373 30.8354827 23.2530525 31.1579951 23.6087009 31.4925287 23.8125691 31.9448704 23.8256774 32.4325888 23.8391306 32.91859 23.661134 33.3819225 23.3251481 33.7350031L22.815305 34.2718369C22.7062993 34.3858668 22.5893597 34.5091703 22.4696604 34.634878 22.4506879 34.6561727 22.4296456 34.6774675 22.411363 34.6973884 22.3223647 34.790467 22.243715 34.8728983 22.1826581 34.9364391 22.1478176 34.9738766 22.1129772 35.0113142 22.0771019 35.0477213 22.0681331 35.0569949 22.061234 35.0648945 22.0605441 35.0659249 21.7135196 35.4258749 21.2440363 35.6237099 20.7410923 35.6237099L20.7410923 35.6237099zM24.8312204 39.4794333C24.4831611 39.8393832 24.0150575 40.0372183 23.5124585 40.0372183 23.0419403 40.0372183 22.5938441 39.8596476 22.2533738 39.5374786 21.5289689 38.8553598 21.4892991 37.7061303 22.159891 36.9827957 22.175759 36.9656226 22.5955688 36.5232413 23.0712614 36.0235017 23.0712614 36.0231582 23.0712614 36.0231582 23.0712614 36.0231582L23.424495 35.651874C24.0429988 34.9999799 24.2458322 34.7880628 24.3141333 34.7142181 24.3220672 34.7070054 24.331381 34.6984188 24.3379351 34.6908626L24.3379351 34.6908626 24.3393149 34.6898322C24.3989921 34.6256045 24.4338325 34.5898843 24.4348674 34.5888539 24.7839616 34.2213477 25.2572394 34.0183607 25.7660477 34.0183607 26.2365659 34.0183607 26.6829373 34.1955879 27.0247874 34.5177569 27.3804357 34.8529774 27.5832691 35.3056626 27.5967223 35.7920071 27.6101756 36.280069 27.4321789 36.7430581 27.0948132 37.0978561 27.0620425 37.1322024 24.9019361 39.4045582 24.8312204 39.4794333zM28.8589117 41.8149863C27.850954 41.7483544 27.0844646 40.8780174 27.1510408 39.8751034 27.2141676 38.9185571 28.0148075 38.1701497 28.9758513 38.1701497 29.016556 38.1701497 29.0579505 38.1715236 29.0986552 38.1739278 30.1062679 38.2398728 30.8727573 39.1102098 30.8072159 40.1134672 30.7409846 41.1091685 29.8727336 41.8812748 28.8589117 41.8149863L28.8589117 41.8149863zM51.2550967 29.1580061L36.9967384 15.0038676 36.9967384 15.0038676 37.1574873 14.5996109C37.2406214 14.3887242 37.2299278 14.139713 37.1081588 13.9302001 36.9860448 13.7213742 36.7818316 13.5997881 36.5679597 13.5884538L35.5082588 13.5252565 35.5082588 13.5252565 34.3505908 13.4569072 34.2626273 14.8232057C34.2615924 14.8517132 34.0321975 17.9586857 32.4409214 20.7658144 30.8096306 23.6464443 28.6481443 24.6397413 28.3187126 24.7036255 27.9506459 24.7747225 27.5646416 24.8423849 27.2438337 24.8423849 27.0234076 24.8423849 26.8536899 24.8114731 26.7084639 24.7451846L26.16723 24.4954865C25.9402498 24.3907301 25.7670825 24.1983905 25.6756695 23.9531574 25.5866712 23.7165109 25.5877061 23.4578828 25.6756695 23.2219232L31.0987026 11.3717391 32.0207666 10.7668996 32.3922828 10.6260795 32.3915929 10.6260795 39.2072082 8.03773716C39.635642 7.87527883 40.0844281 7.79009984 40.5401132 7.78597827L40.5780583 7.78563481C41.0202902 7.78563481 41.4583827 7.86188375 41.8778476 8.01232084L49.8156006 10.8527655 56.585337 24.3663442 51.2550967 29.1580061 51.2550967 29.1580061zM58.969664 1.56516401L53.6111374 4.22529025C52.8405086 4.60893919 52.2154506 5.28487572 51.9201694 6.1627689 51.6252331 7.04100554 51.7166461 7.95496241 52.0998908 8.7239776L59.1159248 22.7287094C59.5005493 23.4956638 60.1790752 24.1190504 61.0625042 24.4116814 61.9435186 24.7056863 62.8614431 24.6160423 63.6334517 24.2327368L68.9909435 21.5712367 58.969664 1.56516401 58.969664 1.56516401zM63.6196536 21.5794799C62.908012 21.5794799 62.329178 21.0048651 62.329178 20.2952691 62.329178 19.5849862 62.908012 19.0089976 63.6196536 19.0089976 64.332675 19.0089976 64.911509 19.5849862 64.911509 20.2952691 64.911509 21.0048651 64.332675 21.5794799 63.6196536 21.5794799zM0 18.5175011L4.8990469 21.9442383C5.60413434 22.4381391 6.49860192 22.6631078 7.41480165 22.5033972 8.33169129 22.3443735 9.09542103 21.8298649 9.59043105 21.1281686L18.62583 8.32178162C19.1222198 7.62008531 19.3481651 6.72845359 19.1884511 5.81690097 19.0273573 4.90431796 18.5126848 4.14320243 17.8069075 3.64930165L12.9071707.223251395 0 18.5175011zM4.22569529 17.8601116C4.33194134 17.1580718 4.98976999 16.6748184 5.69382256 16.7802618 6.39959992 16.8863921 6.88426129 17.5417208 6.77870515 18.2434171 6.67211414 18.9461438 6.01497541 19.4293972 5.30954301 19.32258 4.60411061 19.2174801 4.11910428 18.5628383 4.22569529 17.8601116z"/>
  </g>
</svg>
