<svg xmlns="http://www.w3.org/2000/svg" width="20" height="20" viewBox="0 0 20 20">
  <path fill="#FFF" d="M19.4223362,15.6604449 C18.656986,14.8950342 16.8191044,13.7443146 15.9131798,13.3121439 C14.8614742,12.807077 14.4761959,12.8174907 13.7316716,13.3537989 C13.1121024,13.8015903 12.7112047,14.2181403 11.9979192,14.0619341 C11.2846337,13.9109347 9.87888858,12.8435251 8.51479514,11.4845305 C7.1507017,10.1203291 6.08858315,8.71447258 5.93759571,8.00113059 C5.78660827,7.28258172 6.20312535,6.88685916 6.64567474,6.26724094 C7.18194048,5.52265769 7.19755988,5.13734888 6.68732645,4.08555996 C6.25518998,3.17435669 5.10976801,1.3415364 4.33921141,0.576125649 C3.57386128,-0.189285098 3.40204798,-0.0226650716 2.98032444,0.128334328 C2.98032444,0.128334328 2.35554882,0.378264368 1.73597966,0.789607558 C0.970629525,1.29988139 0.543699517,1.72684521 0.241724634,2.36729094 C-0.0550437856,3.00773666 -0.398670377,4.20011123 1.35070136,7.31382298 C2.76165297,9.82874401 4.14657226,11.7344606 6.20312535,13.7859696 L6.20833181,13.7911765 L6.21353827,13.7963834 C8.27009136,15.8530993 10.1704505,17.2381283 12.6851724,18.6491917 C15.7986376,20.3987019 16.9909177,20.0550481 17.6313127,19.7582562 C18.2717077,19.4614643 18.6986378,19.0345005 19.2088712,18.2638829 C19.6201818,17.6442646 19.870092,17.0194395 19.870092,17.0194395 C20.0210795,16.5976826 20.1928928,16.4258557 19.4223362,15.6604449 Z"/>
</svg>
