<svg xmlns="http://www.w3.org/2000/svg" width="108" height="120" viewBox="0 0 108 120">
  <g fill="none">
    <path fill="#7F8C8D" d="M64,109 C64,115.075132 59.9705627,120 55,120 C50.0294373,120 46,115.075132 46,109 C46,102.924868 50.0294373,98 55,98 C59.9705627,98 64,102.924868 64,109 Z"/>
    <path fill="#F39C12" d="M54,27 C36.8791429,27 23,41.24 23,59.04 C23,72.835 36.8392857,85.295 40.7142857,93.75 C44.5892857,101.76 40.7142857,116 40.7142857,116 L54,113.775 L67.2857143,116 C67.2857143,116 63.4107143,101.76 67.2857143,93.75 C71.1607143,85.295 85,72.835 85,59.04 C85,41.24 71.1208571,27 54,27 Z"/>
    <path fill="#F1C40F" d="M54,27 C71.1208571,27 85,41.24 85,59.04 C85,72.835 71.1607143,85.295 67.2857143,93.75 C63.4107143,101.76 67.2857143,116 67.2857143,116 L54,113.775 L54,27 Z"/>
    <path fill="#E67E22" d="M41.5,53 L37,57.3846154 L55,110 L73,57.3846154 L68.5,53 L64,57.3846154 L59.5,53 L55,57.3846154 L50.5,53 L46,57.3846154 L41.5,53 Z M41.5,57.3846154 L46,61.7692308 L48.25,59.5769231 L50.5,57.3846154 L52.75,59.5769231 L55,61.7692308 L57.25,59.5769231 L59.5,57.3846154 L61.75,59.5769231 L64,61.7692308 L68.5,57.3846154 L70.471,59.1384615 L55,104.3 L39.53125,59.1384615 L41.5,57.3846154 Z"/>
    <rect width="27" height="22" x="41" y="93" fill="#BDC3C7"/>
    <polygon fill="#95A5A6" points="41 93 41 115 54.5 115 54.5 110.6 68 110.6 68 106.2 54.5 106.2 54.5 101.8 68 101.8 68 97.4 54.5 97.4 54.5 93"/>
    <path fill="#7F8C8D" d="M41,98 L41,102.333333 L54,102.333333 L54,98 L41,98 Z M41,106.666667 L41,111 L54,111 L54,106.666667 L41,106.666667 Z"/>
    <g fill="#231F20" opacity=".2" transform="translate(0 4)">
      <path d="M57.6818182 8.02941176C57.6818182 9.92894118 56.0323636 11.4705882 54 11.4705882L54 11.4705882C51.9676364 11.4705882 50.3181818 9.92894118 50.3181818 8.02941176L50.3181818 3.44117647C50.3181818 1.54164706 51.9676364 0 54 0L54 0C56.0323636 0 57.6818182 1.54164706 57.6818182 3.44117647L57.6818182 8.02941176zM99.4090909 53.9117647C97.3767273 53.9117647 95.7272727 52.3724118 95.7272727 50.4705882L95.7272727 50.4705882C95.7272727 48.5710588 97.3767273 47.0294118 99.4090909 47.0294118L104.318182 47.0294118C106.350545 47.0294118 108 48.5710588 108 50.4705882L108 50.4705882C108 52.3724118 106.350545 53.9117647 104.318182 53.9117647L99.4090909 53.9117647zM8.59090909 47.0294118C10.6232727 47.0294118 12.2727273 48.5710588 12.2727273 50.4705882L12.2727273 50.4705882C12.2727273 52.3724118 10.6232727 53.9117647 8.59090909 53.9117647L3.68181818 53.9117647C1.64945455 53.9117647 0 52.3724118 0 50.4705882L0 50.4705882C0 48.5710588 1.64945455 47.0294118 3.68181818 47.0294118L8.59090909 47.0294118zM34.4839091 11.9936471C35.5000909 13.6385294 34.8962727 15.7445294 33.1363636 16.6942941L33.1363636 16.6942941C31.3764545 17.6440588 29.1231818 17.0797059 28.107 15.4348235L25.6524545 11.4614118C24.6362727 9.81652941 25.2400909 7.71052941 27 6.76076471L27 6.76076471C28.7599091 5.811 31.0131818 6.37535294 32.0293636 8.02023529L34.4839091 11.9936471zM95.1651818 32.2300588C93.4052727 33.1798235 91.152 32.6154706 90.1358182 30.9705882L90.1358182 30.9705882C89.1196364 29.3257059 89.7234545 27.2197059 91.4833636 26.2699412L95.7346364 23.9758235C97.497 23.0260588 99.7478182 23.5904118 100.764 25.2352941L100.764 25.2352941C101.780182 26.8801765 101.176364 28.9861765 99.4164545 29.9359412L95.1651818 32.2300588zM12.8323636 68.7111176C14.5947273 67.7613529 16.8455455 68.3257059 17.8617273 69.9705882L17.8617273 69.9705882C18.8779091 71.6177647 18.2740909 73.7214706 16.5141818 74.6712353L12.2629091 76.9653529C10.503 77.9151176 8.24972727 77.3507647 7.23354545 75.7058824L7.23354545 75.7058824C6.21736364 74.061 6.82118182 71.955 8.58109091 71.0052353L12.8323636 68.7111176zM16.5141818 26.2699412C18.2765455 27.2197059 18.8779091 29.3257059 17.8617273 30.9705882L17.8617273 30.9705882C16.8455455 32.6154706 14.5922727 33.1798235 12.8323636 32.2300588L8.58109091 29.9359412C6.82118182 28.9861765 6.21736364 26.8801765 7.23354545 25.2352941L7.23354545 25.2352941C8.24972727 23.5904118 10.503 23.0260588 12.2629091 23.9758235L16.5141818 26.2699412zM91.4833636 74.6712353C89.7234545 73.7214706 89.1196364 71.6154706 90.1358182 69.9705882L90.1358182 69.9705882C91.152 68.3257059 93.4052727 67.7613529 95.1651818 68.7111176L99.4164545 71.0052353C101.178818 71.955 101.780182 74.061 100.764 75.7058824L100.764 75.7058824C99.7478182 77.3530588 97.4945455 77.9151176 95.7346364 76.9653529L91.4833636 74.6712353zM79.893 15.4348235C78.8768182 17.0797059 76.6235455 17.6440588 74.8636364 16.6942941L74.8636364 16.6942941C73.1037273 15.7445294 72.4999091 13.6385294 73.5160909 11.9936471L75.9706364 8.02023529C76.9868182 6.37535294 79.2400909 5.811 81 6.76076471L81 6.76076471C82.7599091 7.71052941 83.3637273 9.81652941 82.3475455 11.4614118L79.893 15.4348235z"/>
    </g>
    <g fill="#E0E0D1">
      <path d="M57.6818182 8.02941176C57.6818182 9.92894118 56.0323636 11.4705882 54 11.4705882L54 11.4705882C51.9676364 11.4705882 50.3181818 9.92894118 50.3181818 8.02941176L50.3181818 3.44117647C50.3181818 1.54164706 51.9676364 0 54 0L54 0C56.0323636 0 57.6818182 1.54164706 57.6818182 3.44117647L57.6818182 8.02941176zM99.4090909 53.9117647C97.3767273 53.9117647 95.7272727 52.3701176 95.7272727 50.4705882L95.7272727 50.4705882C95.7272727 48.5710588 97.3767273 47.0294118 99.4090909 47.0294118L104.318182 47.0294118C106.350545 47.0294118 108 48.5710588 108 50.4705882L108 50.4705882C108 52.3701176 106.350545 53.9117647 104.318182 53.9117647L99.4090909 53.9117647zM8.59090909 47.0294118C10.6232727 47.0294118 12.2727273 48.5710588 12.2727273 50.4705882L12.2727273 50.4705882C12.2727273 52.3701176 10.6232727 53.9117647 8.59090909 53.9117647L3.68181818 53.9117647C1.64945455 53.9117647 0 52.3701176 0 50.4705882L0 50.4705882C0 48.5710588 1.64945455 47.0294118 3.68181818 47.0294118L8.59090909 47.0294118zM34.4839091 11.9959412C35.5000909 13.6408235 34.8962727 15.7468235 33.1363636 16.6965882L33.1363636 16.6965882C31.3764545 17.6463529 29.1231818 17.082 28.107 15.4371176L25.6524545 11.4637059C24.6362727 9.81882353 25.2400909 7.71282353 27 6.76305882L27 6.76305882C28.7599091 5.81329412 31.0131818 6.37764706 32.0293636 8.02252941L34.4839091 11.9959412zM95.1651818 32.2300588C93.4052727 33.1798235 91.152 32.6154706 90.1358182 30.9705882L90.1358182 30.9705882C89.1196364 29.3257059 89.7234545 27.2197059 91.4833636 26.2699412L95.7346364 23.9758235C97.497 23.0260588 99.7478182 23.5904118 100.764 25.2352941L100.764 25.2352941C101.780182 26.8801765 101.176364 28.9861765 99.4164545 29.9359412L95.1651818 32.2300588zM12.8323636 68.7111176C14.5947273 67.7613529 16.8455455 68.3257059 17.8617273 69.9705882L17.8617273 69.9705882C18.8779091 71.6154706 18.2740909 73.7214706 16.5141818 74.6712353L12.2629091 76.9653529C10.503 77.9151176 8.24972727 77.3507647 7.23354545 75.7058824L7.23354545 75.7058824C6.21736364 74.061 6.82118182 71.955 8.58109091 71.0052353L12.8323636 68.7111176zM16.5141818 26.2699412C18.2765455 27.2197059 18.8779091 29.3257059 17.8617273 30.9705882L17.8617273 30.9705882C16.8455455 32.6154706 14.5922727 33.1798235 12.8323636 32.2300588L8.58109091 29.9359412C6.82118182 28.9861765 6.21736364 26.8801765 7.23354545 25.2352941L7.23354545 25.2352941C8.24972727 23.5904118 10.503 23.0260588 12.2629091 23.9758235L16.5141818 26.2699412zM91.4833636 74.6712353C89.7234545 73.7214706 89.1196364 71.6154706 90.1358182 69.9705882L90.1358182 69.9705882C91.152 68.3257059 93.4052727 67.7613529 95.1651818 68.7111176L99.4164545 71.0052353C101.178818 71.955 101.780182 74.061 100.764 75.7058824L100.764 75.7058824C99.7478182 77.3507647 97.4945455 77.9151176 95.7346364 76.9653529L91.4833636 74.6712353zM79.893 15.4371176C78.8768182 17.082 76.6235455 17.6463529 74.8636364 16.6965882L74.8636364 16.6965882C73.1037273 15.7468235 72.4999091 13.6408235 73.5160909 11.9959412L75.9706364 8.02252941C76.9868182 6.37764706 79.2400909 5.81329412 81 6.76305882L81 6.76305882C82.7599091 7.71282353 83.3637273 9.81882353 82.3475455 11.4637059L79.893 15.4371176z"/>
    </g>
  </g>
</svg>
